<?xml version="1.0" encoding="utf-8"?>
<!-- Generator: Adobe Illustrator 27.5.0, SVG Export Plug-In . SVG Version: 6.00 Build 0)  -->
<svg version="1.1" id="Layer_1" xmlns="http://www.w3.org/2000/svg" xmlns:xlink="http://www.w3.org/1999/xlink" x="0px" y="0px"
	 viewBox="0 0 1000 205.5" style="enable-background:new 0 0 1000 205.5;" xml:space="preserve">
<style type="text/css">
	.st0{fill:#FD0560;}
</style>
<g>
	<rect x="426.1" width="3.6" height="205.5"/>
	<g>
		<path class="st0" d="M467.2,55.2l-1.6,16h28.1l-8.2,79.2h18l8.2-79.2H540l1.7-16H467.2z"/>
		<path class="st0" d="M615.8,64.5c-5.9-6.2-13.5-9.3-22.9-9.3h-41.8l-9.9,95.1h18l3.2-30.2h19.5l12,30.2h20l-13.4-33.1
			c6.2-2.5,11.4-6.4,15.5-11.6c4.1-5.2,6.5-11.2,7.2-17.9C624,78.4,621.6,70.7,615.8,64.5z M604.2,87.6c-0.4,4.6-2.2,8.5-5.5,11.7
			c-3.2,3.2-6.8,4.8-10.9,4.8H564l3.4-33h23.8c4.1,0,7.4,1.6,9.9,4.9C603.7,79.3,604.7,83.1,604.2,87.6z"/>
		<path class="st0" d="M684.1,55.2h-19.6l-43.4,95.1h19.4l7.2-17.3h36.7l3.8,17.3h19.4L684.1,55.2z M654.5,117.1l17-40.1h1l8.5,40.1
			H654.5z"/>
		<path class="st0" d="M723,94.6l-5.8,55.7h18l4-39.7h41l1.7-16H723z M727.1,55.2l-1.7,15.9H749v0.1h44.1l0-0.1l1.6-15.9H727.1z"/>
		<path class="st0" d="M804.2,55.2l-1.7,15.9h25.5v0.1h42.1l1.6-16H804.2z M800.1,94.6l-5.8,55.7h18l4-39.7h41l1.7-16H800.1z"/>
		<path class="st0" d="M881.3,55.2l-9.9,95.1h18l9.8-95.1H881.3z"/>
		<path class="st0" d="M969.6,132.5c-4.8,2.5-9.8,3.7-15,3.7c-9.1,0-16.5-3.3-22.3-9.8c-5.7-6.6-8.1-14.4-7.2-23.7
			c0.9-9.2,5-17.1,12.1-23.7c7.1-6.6,15.3-9.8,24.4-9.8c5.2,0,9.9,1.3,14.2,3.8c4.3,2.6,7.8,5.9,10.6,9.9l13.6-12
			c-4-5.7-9.2-10.1-15.6-13.2c-6.4-3.2-13.4-4.8-21.1-4.8c-14.4,0-27.1,4.8-38.2,14.4c-11.1,9.6-17.3,21.4-18.8,35.3
			c-1.4,14,2.4,25.8,11.4,35.4c9,9.6,20.8,14.3,35.1,14.3c7.7,0,15-1.6,22.1-4.8c7-3.2,13.1-7.6,18.4-13.3l-11-12
			C978.6,126.7,974.4,130,969.6,132.5z"/>
	</g>
	<g>
		<path d="M85.5,67.8l-5.9,5.9c-8.1-8.1-17.8-12.1-29.3-12.1c-11.3,0-20.9,4-28.8,12c-7.9,8-11.8,17.7-11.8,29.1s3.9,21.1,11.8,29.1
			c7.9,8,17.5,12,28.8,12c11.4,0,21.2-3.9,29.3-11.8l5.9,5.9c-9.6,9.6-21.4,14.4-35.2,14.5c-13.9,0-25.7-4.8-35.5-14.6
			C4.9,128.2,0,116.5,0,102.8C0,89,4.9,77.3,14.7,67.6C24.5,57.9,36.4,53,50.2,53C63.9,53,75.6,57.9,85.5,67.8z"/>
		<path d="M97.5,150.3V55.2h9.4v34.1h0.3c1.8-3.8,5-7.2,9.7-10.2c4.7-3,9.7-4.5,15.1-4.5c9,0,16.1,2.7,21.2,8.1
			c5.1,5.4,7.7,12.4,7.7,21.2v46.3h-9.4V104c0-6.2-1.9-11.2-5.6-15c-3.7-3.8-8.6-5.7-14.7-5.7c-6.1,0-11.7,2.2-16.8,6.5
			c-5.1,4.3-7.6,9.4-7.6,15.2v45.3H97.5z"/>
		<path d="M243.3,150.3v-14.9H243c-3.3,4.9-7.6,9-12.8,12.2c-5.2,3.2-11.2,4.8-18,4.8c-10.8,0-20-3.8-27.5-11.4
			c-7.5-7.6-11.2-16.8-11.2-27.6c0-10.7,3.7-19.9,11.2-27.5c7.5-7.6,16.6-11.4,27.5-11.4c6.9,0,13,1.6,18.1,4.8
			c5.1,3.2,9.4,7.3,12.7,12.3h0.2V76.9h9.4v73.5H243.3z M243.3,113.5c0-8.4-3-15.5-8.9-21.4c-5.9-5.9-13-8.8-21.3-8.8
			c-8.4,0-15.5,2.9-21.2,8.8c-5.8,5.9-8.7,13-8.7,21.4c0,8.5,2.9,15.6,8.7,21.5c5.8,5.9,12.9,8.8,21.2,8.8c8.3,0,15.4-2.9,21.3-8.8
			C240.3,129.2,243.3,122,243.3,113.5z"/>
		<path d="M363.7,150.3h-9.4v-51c0-4.7-1.7-8.5-5-11.5c-3.3-3-7.3-4.5-11.9-4.5s-8.6,1.7-12,5c-3.3,3.4-5,7.4-5,12.2v49.7h-9.4
			v-49.7c0-4.7-1.6-8.8-4.9-12.2c-3.3-3.4-7.3-5-11.9-5c-4.6,0-8.6,1.6-12,4.9c-3.4,3.2-5.1,7.2-5.1,11.7v50.4h-9.4V76.9h9.4V86h0.3
			c4.2-7.5,10.2-11.3,18-11.3c9.3,0,16.6,4,21.9,12.1c2.4-3.6,5.5-6.6,9.3-8.8c3.8-2.2,7.8-3.3,12.1-3.3c7.2,0,13.1,2.3,17.9,7
			c4.7,4.7,7.1,10.5,7.1,17.7V150.3z"/>
		<path d="M379.1,64.1c-1.3-1.3-1.9-2.8-1.9-4.6c0-1.8,0.6-3.3,1.9-4.6c1.3-1.3,2.8-1.9,4.6-1.9c1.8,0,3.3,0.6,4.6,1.9
			c1.3,1.3,1.9,2.8,1.9,4.6c0,1.8-0.6,3.3-1.9,4.6c-1.3,1.3-2.8,1.9-4.6,1.9C381.9,66,380.4,65.3,379.1,64.1z M379,76.9h9.4v73.5
			H379V76.9z"/>
	</g>
</g>
</svg>
