<svg version="1.2" xmlns="http://www.w3.org/2000/svg" viewBox="0 0 1000 206" width="1000" height="206">
	<title>logo-svg</title>
	<style>
		.s0 { fill: #000000 } 
		.s1 { fill: #fd0560 } 
		.s2 { fill: #ffffff } 
	</style>
	<filter id="f0">
		<feFlood flood-color="#ffffff" flood-opacity="1" />
		<feBlend mode="normal" in2="SourceGraphic"/>
		<feComposite in2="SourceAlpha" operator="in" />
	</filter>
	<g id="Layer" filter="url(#f0)">
		<path id="Layer" class="s0" d="m426.1 0h3.6v205.5h-3.6z"/>
		<g id="Layer">
			<path id="Layer" class="s1" d="m467.2 55.2l-1.6 16h28.1l-8.2 79.2h18l8.2-79.2h28.3l1.7-16z"/>
			<path id="Layer" fill-rule="evenodd" class="s1" d="m623.2 87.7c-0.7 6.7-3.1 12.7-7.2 17.9-4.1 5.2-9.3 9.1-15.5 11.6l13.4 33.1h-20l-12-30.2h-19.5l-3.2 30.2h-18l9.9-95.1h41.8c9.4 0 17 3.1 22.9 9.3 5.8 6.2 8.2 13.9 7.4 23.2zm-22.1-11.7c-2.5-3.3-5.8-4.9-9.9-4.9h-23.8l-3.4 33h23.8c4.1 0 7.7-1.6 10.9-4.8 3.3-3.2 5.1-7.1 5.5-11.7 0.5-4.5-0.5-8.3-3.1-11.6z"/>
			<path id="Layer" fill-rule="evenodd" class="s1" d="m707.6 150.3h-19.4l-3.8-17.3h-36.7l-7.2 17.3h-19.4l43.4-95.1h19.6zm-26.6-33.2l-8.5-40.1h-1l-17 40.1z"/>
			<path id="Layer" class="s1" d="m723 94.6l-5.8 55.7h18l4-39.7h41l1.7-16zm4.1-39.4l-1.7 15.9h23.6v0.1h44.1v-0.1l1.6-15.9z"/>
			<path id="Layer" class="s1" d="m804.2 55.2l-1.7 15.9h25.5v0.1h42.1l1.6-16zm-4.1 39.4l-5.8 55.7h18l4-39.7h41l1.7-16z"/>
			<path id="Layer" class="s1" d="m881.3 55.2l-9.9 95.1h18l9.8-95.1z"/>
			<path id="Layer" class="s1" d="m969.6 132.5c-4.8 2.5-9.8 3.7-15 3.7-9.1 0-16.5-3.3-22.3-9.8-5.7-6.6-8.1-14.4-7.2-23.7 0.9-9.2 5-17.1 12.1-23.7 7.1-6.6 15.3-9.8 24.4-9.8 5.2 0 9.9 1.3 14.2 3.8 4.3 2.6 7.8 5.9 10.6 9.9l13.6-12q-6-8.6-15.6-13.2c-6.4-3.2-13.4-4.8-21.1-4.8-14.4 0-27.1 4.8-38.2 14.4-11.1 9.6-17.3 21.4-18.8 35.3q-2.1 21 11.4 35.4c9 9.6 20.8 14.3 35.1 14.3 7.7 0 15-1.6 22.1-4.8 7-3.2 13.1-7.6 18.4-13.3l-11-12c-3.7 4.5-7.9 7.8-12.7 10.3z"/>
		</g>
		<filter id="f1">
			<feFlood flood-color="#ffffff" flood-opacity="1" />
			<feBlend mode="normal" in2="SourceGraphic"/>
			<feComposite in2="SourceAlpha" operator="in" />
		</filter>
		<g id="Layer" filter="url(#f1)">
			<path id="Layer" class="s0" d="m85.5 67.8l-5.9 5.9c-8.1-8.1-17.8-12.1-29.3-12.1q-17 0-28.8 12c-7.9 8-11.8 17.7-11.8 29.1 0 11.4 3.9 21.1 11.8 29.1q11.8 12 28.8 12c11.4 0 21.2-3.9 29.3-11.8l5.9 5.9c-9.6 9.6-21.4 14.4-35.2 14.5-13.9 0-25.7-4.8-35.5-14.6-9.9-9.6-14.8-21.3-14.8-35 0-13.8 4.9-25.5 14.7-35.2 9.8-9.7 21.7-14.6 35.5-14.6 13.7 0 25.4 4.9 35.3 14.8z"/>
			<path id="Layer" class="s0" d="m97.5 150.3v-95.1h9.4v34.1h0.3c1.8-3.8 5-7.2 9.7-10.2 4.7-3 9.7-4.5 15.1-4.5 9 0 16.1 2.7 21.2 8.1 5.1 5.4 7.7 12.4 7.7 21.2v46.3h-9.4v-46.2c0-6.2-1.9-11.2-5.6-15q-5.6-5.7-14.7-5.7c-6.1 0-11.7 2.2-16.8 6.5-5.1 4.3-7.6 9.4-7.6 15.2v45.3z"/>
			<path id="Layer" fill-rule="evenodd" class="s0" d="m243.3 135.4h-0.3c-3.3 4.9-7.6 9-12.8 12.2q-7.8 4.8-18 4.8c-10.8 0-20-3.8-27.5-11.4-7.5-7.6-11.2-16.8-11.2-27.6 0-10.7 3.7-19.9 11.2-27.5 7.5-7.6 16.6-11.4 27.5-11.4 6.9 0 13 1.6 18.1 4.8 5.1 3.2 9.4 7.3 12.7 12.3h0.2v-14.7h9.4v73.5h-9.3zm0-21.9c0-8.4-3-15.5-8.9-21.4-5.9-5.9-13-8.8-21.3-8.8-8.4 0-15.5 2.9-21.2 8.8-5.8 5.9-8.7 13-8.7 21.4 0 8.5 2.9 15.6 8.7 21.5 5.8 5.9 12.9 8.8 21.2 8.8 8.3 0 15.4-2.9 21.3-8.8 5.9-5.8 8.9-13 8.9-21.5z"/>
			<path id="Layer" class="s0" d="m363.7 150.3h-9.4v-51c0-4.7-1.7-8.5-5-11.5-3.3-3-7.3-4.5-11.9-4.5-4.6 0-8.6 1.7-12 5-3.3 3.4-5 7.4-5 12.2v49.7h-9.4v-49.7c0-4.7-1.6-8.8-4.9-12.2-3.3-3.4-7.3-5-11.9-5-4.6 0-8.6 1.6-12 4.9-3.4 3.2-5.1 7.2-5.1 11.7v50.4h-9.4v-73.4h9.4v9.1h0.3c4.2-7.5 10.2-11.3 18-11.3 9.3 0 16.6 4 21.9 12.1 2.4-3.6 5.5-6.6 9.3-8.8 3.8-2.2 7.8-3.3 12.1-3.3 7.2 0 13.1 2.3 17.9 7 4.7 4.7 7.1 10.5 7.1 17.7z"/>
			<path id="Layer" class="s2" d="m379.1 64.1c-1.3-1.3-1.9-2.8-1.9-4.6 0-1.8 0.6-3.3 1.9-4.6 1.3-1.3 2.8-1.9 4.6-1.9 1.8 0 3.3 0.6 4.6 1.9 1.3 1.3 1.9 2.8 1.9 4.6 0 1.8-0.6 3.3-1.9 4.6-1.3 1.3-2.8 1.9-4.6 1.9-1.8 0-3.3-0.7-4.6-1.9zm-0.1 12.8h9.4v73.5h-9.4z"/>
		</g>
	</g>
</svg>